<?xml version="1.0" encoding="UTF-8"?>
<svg id="svg" xmlns="http://www.w3.org/2000/svg" version="1.1" viewBox="0 0 800 600">
    <!-- Generator: Adobe Illustrator 29.0.0, SVG Export Plug-In . SVG Version: 2.1.0 Build 186)  -->
    <defs>
        <style>
            .st0 {
            fill-rule: evenodd;
            }
        </style>
    </defs>
    <g id="shape_PUEPPPvLNT">
        <path class="st0"
              d="M431.5.8c-10.8,10.1-9.1,23.3,4.4,34.7,3.1,2.6,5.2,4.8,4.6,4.9-.6.1-4.2-.7-7.9-1.8-9.5-2.8-23.8-5.6-34-6.6l-8.5-.9-2.6-4.2c-3.1-4.9-8.2-9.1-13.1-10.8-3.2-1.1-3.7-1.7-4.9-5-1.5-4.2-4.6-7-9.4-8.4-2.6-.8-4-.7-8.1.3-9.3,2.4-14.1,6.4-16.5,14-1.2,3.8-1.5,4-7.4,6.8-13.7,6.6-18.5,14.5-13.8,22.7l1.8,3.2-1.6,1.6c-1.5,1.5-1.9,1.6-5,.7-1.9-.5-8.1-1-13.8-1h-10.4c0,0-.2,2-.2,2l-.2,2.1h26.2l-7.1,7.1c-8.7,8.8-13.4,15.6-17.9,26.1-6.8,15.7-8.5,22.4-11.1,45.3-1,8.4-2.1,14.8-3.2,17.6-1.6,4.1-1.6,4.5-.4,6.9,2.8,5.8,5.7,15.3,4.7,14.9-3.6-1.5-3.8-1.4-1.9.6,1.6,1.7,1.7,2.1.6,2.1s-2.2-.6-3.3-1.3c-2-1.3-2-1.3-1.4.6,1.1,3.7,3.5,5.4,7.4,5.4s3.7.3,4,1.6c.3,1.1-.3,2.1-2.3,3.6-3,2.3-2.4,3.3,1.8,3.3,1.4,0,2.5.3,2.5.6,0,.3-.9,4.2-1.9,8.7-1,4.5-1.9,10.5-1.9,13.4,0,14.1,8.9,39.5,20.8,59.2,3,4.9,6.5,11.8,7.8,15.4,6.2,16.2,14,17.5,46.7,7.9,5.9-1.7,11-2.9,11.4-2.5.8.8,8.9,18.9,9.5,21.2.4,1.4-.3,2.1-4.1,4.2-5.6,3.1-7.2,4.4-7.2,5.5s1.7,6.5,3.9,13.2c2.1,6.8,4.1,13.6,4.3,15.2l.5,2.9-7.2,5c-4,2.8-9.8,7.5-12.9,10.4l-5.7,5.4-8.9.4-8.9.4-6.8,7.3q-9.4,10-4.1,10h4.3l4.6-6.9,4.6-6.9,24.6-.4c13.5-.2,25.7-.7,27.1-.9l2.5-.5-2.6,4.5c-1.4,2.5-3.3,5.7-4.3,7.2-1.9,3.1-2.1,3.9-.7,3.9s3.4-3.4,8.2-11.6c2.5-4.2,2.6-4.3,9.4-6.5,7.7-2.5,33.8-15.1,41.9-20.3l5.3-3.4-.4-3.2c-.2-1.8-.8-4.2-1.3-5.5l-.9-2.2-7.5.4c-7.3.3-14.2,2-16.2,4-1.3,1.2,1.2,9.7,4.1,13.9,2.2,3.3,2.5,4.2.7,2.7-1.6-1.3-5.5-9.5-6.1-12.8-.3-1.4-.7-2.5-1.1-2.5-2,0-10.9,8.4-15.3,14.6-2,2.7-3.7,4.5-3.9,4-.9-2.6,10.9-16.9,16.4-19.8,1.5-.8,2.7-1.9,2.7-2.4s-.8-4.5-1.8-8.9c-1-4.4-2.8-13.2-4-19.5-1.2-6.3-2.6-11.6-3.1-11.8-1.4-.5-12.7,4.9-13.2,6.4-.9,2.4,1.2,15.2,4.3,25.4,1.7,5.5,3.2,11.6,3.5,13.5.6,4.5.2,3.5-2.1-5-1-3.8-2.8-10.1-3.9-13.9-2.8-9.7-3.4-17.7-1.7-23.2,1.1-3.5,1.2-5,.5-8.7q-.9-4.9,6.1-10.2l2.5-1.9-2.5-5c-1.4-2.8-3-5.6-3.6-6.2-.6-.7-1.1-1.6-1.1-2s-2.6-2.6-5.8-4.8-5.8-4.1-5.8-4.2,1.2-1.5,2.7-3.1c3.3-3.4,8.9-13.3,8.9-15.6,0-3,2.9-5.7,6.1-5.7s8.6,4,8.6,6.4c0,2.3-2.3,6-6.4,10.3-2.1,2.3-3.5,4.1-3.1,4.1,1.3,0,7.9-7,10-10.7,1.9-3.3,1.9-3.5.7-5.8-4.7-9-8-10.8-13.4-7.5l-2.4,1.5-2.8-5.9c-4.7-9.9-4.9-12-5.8-54.6-.5-25.8-1-38.9-1.6-39.4-.6-.6-.7,9.3-.4,35.1.3,19.8.6,37,.8,38.3.4,2.4.4,2.4-3.2,2.3-3,0-3.8.3-5.1,2-1.4,1.8-1.4,2.2-.4,4.6,1.8,4.4,4.6,5.7,8.9,4.3,1.3-.4,1.7-.3,1.7.6s1.4,4.3,3.1,8.2c2.8,6.4,3.3,9.2,1.5,8.1-.4-.2-1.1-.2-1.6.1-.6.4-.5.9.5,1.6,2.1,1.5,1,5.1-3.4,12.1-3.7,5.8-6.2,8-6.8,6.1-.2-.5-.6-.7-1.1-.5-.5.3-.4.9.2,1.5.7.8.7,1.4-.1,2.3-2,2.4-19.6,15.5-28.8,21.5-7.9,5.1-9.9,6.1-14.9,7.1-7.3,1.4-13.5,1.4-16.8,0-4.4-1.8-8.8-10.5-6.6-13.2.5-.6,2.6-1.5,4.7-2,3.7-.9,8.4-3.9,8.4-5.4s-3.4-2.4-11.8-3.4c-6.5-.8-8.9-1.4-9.6-2.4-1.1-1.5-1.3-4.8-.3-6.3,1.1-1.7,13.9-2.9,20.9-1.9,4.7.7,6.9.7,9.8,0,5.8-1.5,5.1-3.1-1.6-3.6-4.6-.4-6.6-1.1-13-4.5-6.9-3.6-8-4-12-3.8-3.1.1-5-.2-6.3-1.1-1-.7-2.1-1.3-2.4-1.3-1.2,0-2.4,4.9-2,8.1.3,1.9.3,3.5.1,3.5-.9,0-4.6-8.8-8.5-20.3-5.5-16.2-6-21.8-3.5-34,2-9.3,1.8-9.1,9.1-10.1l4.1-.5-.5,2.5c-1,4.7-4.3,12.5-7.4,17.7-4.7,7.9-4.1,10.1,4.4,18.2,5.8,5.5,5.9,5.6,5.5,8.9l-.4,3.4,3-3.1,3-3.1-.4,3.3c-.2,2,0,3.3.4,3.3s.7-1.5.4-4c-.3-3.5-.8-4.3-3.8-7-8.2-7.3-10-9.2-11.2-11.7l-1.3-2.7,4.7-9.5c7.2-14.4,8.7-22.5,5.6-31.2-1.5-4.2-8.8-15.2-13.5-20.2-2.5-2.7-7.3-5.5-9.4-5.5s-1.1-.5-.8-2.1c.2-1.2.9-5.4,1.6-9.5,3.7-24,4.6-28.8,6.3-34.1,3.6-11.4,13-22.2,22.1-25.3,10.3-3.5,24.7-2.9,37.7,1.7,8.7,3,9.8,3.8,10.4,7.5.8,4.4,4.3,9.6,7.7,11.2,2.3,1.1,3.9,1.3,7.3.9,4.3-.5,4.5-.4,6.7,2.1,1.3,1.5,5.2,7.2,8.7,12.8,5.7,9,7.5,11.2,16.6,19.8,6.1,5.8,11.8,12,14.3,15.5l4.1,5.9-1.2,7.9c-1.5,9.7-2.2,35.3-1.2,41.7.4,2.6,1.8,7.1,3.2,10l2.4,5.3-8,8.1c-4.4,4.4-7.7,8.1-7.3,8.1s4.2-3.5,8.5-7.8q7.7-7.7,9.1-6.1c.8.9,1.4,2.9,1.4,4.6s.6,3.7,1.5,4.9l1.5,2-2.5,4c-10.3,16.5-15.4,22.5-25.6,30l-6.7,4.9,2,2.4c1.1,1.3,2.8,4.1,3.7,6.1l1.6,3.6,9.7-7c5.3-3.9,11-8.2,12.7-9.7l3.1-2.7.5,9.1c.3,5,.7,10.8,1.1,12.8.8,5.1,2.3,4.8,1.7-.4-2.8-24-3.1-34.7-.9-45.3,2.1-10.2,5.3-14.9,23.9-34.6l3-3.2-2.4-6.2c-4.6-12.1-4.9-22.8-.9-33.7,5.1-13.6,16.8-18.6,24.5-10.4,4,4.2,5.5,9.6,6.5,22.7,1.4,19.2.3,24.8-6.3,32.4-3.9,4.4-8.5,6.7-13.7,6.7s-4,0-4-2.1c0-1.2.5-3.9,1.1-6,1-3.8,1-5-.2-5s-19.7,20.8-23.6,25.9c-1.6,2.1-3.6,5.3-4.4,7-1.6,3.6-3.4,13.9-4.1,23.1l-.5,6.2,2.4-2.7c1.3-1.5,4.5-5.8,7.1-9.7,2.6-3.8,4.9-7.1,5.1-7.3,1-1-.7,16.1-2.1,21.4-2,7.1-1.6,8.3.6,1.7l1.6-4.8.4,3.5c1.5,12.9,2.4,17.3,5.2,25.7,1.7,5.2,5.4,14,8.1,19.7,4.1,8.5,5.2,10.3,6.4,9.9,2.9-.9,9.8-2,12.7-2s3-.2,3-.5-.9-1.7-2-3.1c-3.3-4.3-6.5-12.1-7.7-18.5-2.1-11.2-1.9-10.7-5.8-10.7-1.9,0-5.5.2-8.1.4l-4.6.4-.9-5c-1.3-7.1-1.2-18.9.2-24.3,1.3-5.1,7.3-20.8,7.8-20.3.2.2-.3,3.2-.9,6.7-.7,3.5-1,6.6-.8,6.8.2.2,1.3-.3,2.3-1.3,1-1,2-1.4,2.2-1.1.2.4,1.2,3.2,2.1,6.4,4,13.4,11.2,23.7,19.5,27.9,4.4,2.2,4.7,2.3,6.5,1.1,3.1-2,2.1-3.9-2.1-3.9-7.7,0-16.2-10.6-21.1-26.3-2.2-7-3.9-18.8-3.2-21,1.2-3.4,1.8-3.4,8,.8,7.2,4.9,17,9.7,19.8,9.7h2.1l-.3-17.5-.3-17.5,2.3-4.7c3.5-7.2,5.9-13.9,8.3-23.2l2.2-8.5v52c0,51.4,0,52,1.6,52s1.5-.5,1.6-48.5c0-37.6.3-50.3,1.1-56.8.6-4.6,1.4-8.7,1.7-9.3.3-.5,1.2,1.8,2.1,5.6,1.3,5.9,1.5,10.9,2,49.8.4,36.3.6,43.3,1.6,43.6.9.3,1-5.6.6-41.4-.4-36.7-.7-42.8-2.1-50.8-.9-5-1.5-10.2-1.5-11.6,0-3.6,5.5-17,6.4-15.5.3.6.7,36.4.9,79.4.2,65.9.4,80.3,1.5,91,1.6,15.9,5,43.4,5.9,47.4.7,3,3.4,6.6,4.3,5.7.3-.3-.4-7.7-1.5-16.6-2.9-23.2-4.9-44.1-5.8-60.5-.8-15.3-2.1-118.1-1.4-117.4.2.2,1.8,6.2,3.6,13.4,1.8,7.1,4,14.9,5.1,17.2,1.7,3.8,2.1,4.2,4,4,3.6-.4,3.9-2.1,1.6-9.6-1.1-3.8-3.7-15.7-5.6-26.5-1.9-10.8-3.7-20.2-3.9-20.9-.2-.6,3.4,2.7,8,7.4l8.4,8.6,7.6-.2c5.4-.1,7.8-.5,8.3-1.2,1-1.6.8-2.7-.6-4.2-1.1-1.1-2.2-1.2-6.9-.7l-5.6.5-8.1-8.4c-4.5-4.6-9.6-10.2-11.3-12.4-3-3.8-3.1-4.1-2.4-6.9.4-1.6.8-6.2.8-10.1,0-9.7-1.6-17.4-5.8-27.6-.6-1.3-.3-1.3,2,.4,1.5,1,5.6,4.8,9.3,8.3,5.8,5.6,7,6.4,9.4,6.4s3.8.8,7.3,3.6c2.5,2,4.9,4,5.5,4.4.8.6,1.4.3,2.5-1.1.8-1,1.5-2.5,1.5-3.2,0-1.5-4.3-5.2-11.2-9.6-2.5-1.6-9-6-14.3-9.6s-11.7-7.8-14.2-9.2c-5.2-2.9-5.5-2.1,3.4-7.9,12.6-8.2,14.1-17.8,4.4-28.1-4.4-4.7-4.6-5-3.7-7.3,1.5-4.2,1-9.6-1.1-13.9-1.9-3.7-7.2-9.5-10.9-12-.9-.6-2.3-2.9-3-5.1-.7-2.2-2.7-5.4-4.4-7.3l-3.1-3.3h-24.7c-27.2,0-26.9,0-32.8,5-3.6,3.1-7.1,9.3-8.5,15.1l-1,4.3.4-4.2c.7-7.2,4.3-13.8,9.9-17.9l3.1-2.3h-5.6c-5.6,0-5.6,0-9.3,3.5M470.4,9.3c-1.7.5-4.2,1.5-5.6,2.2-1.4.7-2.7,1.2-2.9,1-.6-.6,3.9-3.5,6.7-4.2,3.8-1,5.5-.1,1.8,1M354.2,13.5c-1.5,1-3.3,1-2.7,0,.3-.4,1.2-.8,2.2-.8,1.4,0,1.5.2.5.8M474.3,16.2c-2.5,1-5.3,2-6.2,2.3l-1.5.6,1.5-1.3c2.3-2,5.9-3.4,8.5-3.4,1.9,0,1.5.3-2.3,1.8M479,19.6c-.8.3-2.6.8-3.9,1.1l-2.3.5,2.3-1.1c1.3-.6,3-1.1,3.9-1.1h1.5s-1.5.6-1.5.6M434.3,24.5c-.2.6-.4.4-.5-.5,0-.8.1-1.3.4-1s.3.9,0,1.5M335.8,28.6c-1.4.6-3.6,1.9-4.9,2.8-1.6,1.1-2.2,1.3-2,.6.6-1.7,5.3-4.6,7.5-4.5,1.9,0,1.9,0-.6,1.1M400.9,36.4c4.7.6,13.7,2.4,20.1,4l11.6,2.8-8.5,1.8c-4.7,1-10.5,2.5-13.1,3.5-6.1,2.2-17.1,7.8-21.7,11.1l-3.7,2.6-3.5-2.4c-4.8-3.3-15.5-8-22-9.5l-5.3-1.3,2.6-1.6c3.3-2,13.8-7.1,17-8.2,4.8-1.7,1.4-1.8-4.1,0-6.3,1.9-12.1,4.7-15.8,7.4-2.2,1.6-3.1,1.8-10,1.7-7.7-.1-15.3,1.2-16.3,2.7-.3.6,0,.6,1,.2.8-.3,5.8-.8,11.1-1l9.7-.3-3.6,2.3c-4.6,2.9-13.7,11.6-16.4,15.5l-2.1,3-7.1.5c-11.1.8-19.2,3.4-26.4,8.4q-2.8,1.9,4.8-7.3c11.5-14,31.7-27.6,48.9-33,15.2-4.8,31.6-5.7,52.9-2.8M497.5,40.1c1.5.6,2.7,1.2,2.7,1.4s-3.4.1-7.5,0c-4.8-.2-9.6.2-13.3,1-3.2.7-5.9,1.1-6,.9-.3-.3,5.1-2.4,9-3.5,4.1-1.1,12.1-1,15.1.2M495.9,45.7c.6.3-2.8.6-7.7.6s-8.8,0-8.8-.2,1.1-.5,2.5-.9c2.7-.8,12.2-.5,14,.5M449.7,49.7c1.2.7,1.2.9.3,1.1-14.2,4.1-19.6,6-26.7,9.4-16.7,8.1-29,17.1-39.4,28.7-3.2,3.6-5.9,6.5-6.1,6.6-.7.4-10.5-8.2-10.5-9.2,0-1.6,9.9-11.1,17.7-17,12.3-9.3,32.8-18.2,46.8-20.3,5.6-.9,15.9-.5,17.9.6M362.3,53.5c5.9,2.1,20.5,9.4,20.5,10.3s-1.3,1.5-2.9,2.7c-1.6,1.2-6.1,5.4-10,9.4l-7.1,7.2-8.7-4.3c-4.8-2.3-11.8-5.1-15.5-6-3.7-1-6.8-2.1-6.8-2.4s4.3-5,9.6-10.2c10.9-10.9,10-10.5,20.9-6.7M490.8,53.4l1.7,1.2v60.1c0,40.7-.3,60.9-.8,62.5-.9,2.7-2,3.3-4.3,2.5-1.4-.5-1.7-1.4-2.1-7.7-.3-3.9-.5-32.4-.5-63.4v-56.4c0,0,2.1,0,2.1,0,1.2,0,2.9.5,3.9,1.2M445.4,71.5c3.6,3.9,6.6,7.3,6.7,7.6s-2.8,2-6.6,3.9c-7.3,3.6-18,10.3-23.1,14.5-1.8,1.4-3.6,2.6-4,2.6s-1.3-.9-2.1-2c-.7-1.1-3.6-4.6-6.4-7.8l-5-5.8,2.5-2c11.2-9,26-17.9,29.6-17.9s3.8,2.3,8.2,7M480.1,80c-1.4,8.3-5.2,15.9-15.2,30.7-5.2,7.8-10.4,15.8-11.4,17.9-1.6,3.2-2.3,3.9-4.7,4.3-1.5.3-3,.4-3.2.1-.5-.5,1.9-8.7,3.4-11.7.7-1.3,5.3-8.6,10.3-16.3,10.2-15.6,17.7-28.8,19.8-35l1.4-4.1.2,4.5c.1,2.5-.2,6.8-.6,9.5M502,124.8c0,6.6-.3,12.7-.7,13.7-.5,1.1-.7-2.9-.7-12s-.2-15.6-.5-17.9l-.5-4.2,1.2,4.2c.8,2.9,1.2,8.1,1.2,16.2M453.5,137c-11.7,5.6-19.5,19.3-21.6,38.2-.4,3.6-.8,4.4-1.9,4.4-2.1,0-2.6-1.3-.8-1.9,2-.6,2-2.3,0-3.7l-1.6-1.1,1.6-.5c1.9-.6,2.2-3.3.5-4-1.7-.6-1.4-1.8.3-1.8s2.6-1.2,1.1-2.7c-1.2-1.2-1.1-1.3.4-1.7,2-.5,2.1-1.5.3-2.5-.7-.4-1-.8-.5-.8.4,0,1.5-.5,2.3-1.1,1.5-1.1,1.5-1.1,0-2.3-1.4-1-1.4-1.2-.2-1.2,1.4,0,3.6-3.1,2.2-3.1s-.8-.3-.8-.8.7-.8,1.6-.8,1.5-.4,1.2-1.6c-.7-2.8,9.2-11,15.2-12.4,5.1-1.2,5.4-.7.9,1.5M334.1,137.5c-7.7,1.6-14,4.3-16.8,7-2.1,2.1-2.5,3.1-2.5,6,0,6.8,5.9,10.7,9.5,6.2,3.8-4.7,8-8.3,11.7-10,9.1-4.2,21.9-4.3,33.6-.4,5.8,2,6.3,2,4.7.6-2.8-2.3-12.1-6.4-18.6-8.3-7.6-2.1-15.3-2.6-21.6-1.2M335.1,159.5c-1.8.9-3.7,2.4-4.2,3.5-.5,1.1-1.3,1.8-1.9,1.6-1.4-.5-1.3,1.1.2,3.2,1.1,1.5,1,2.2-.8,7.5-1.1,3.2-2,6.1-2,6.4s1.7-1.3,3.8-3.7l3.8-4.2-.4,2.7c-.2,1.5-.7,3.7-1.1,4.9-.4,1.2-.7,2.5-.7,2.8s3.2.6,7,.7c10.1.3,13.3-1,21.3-8.4,5.5-5.1,7.5-6.4,12.9-8.4,3.5-1.3,7-2.9,7.8-3.6,1.4-1.1,1.4-1.2-.8-.9-1.3.2-4.8.8-7.9,1.4-4.7.9-6.5.9-11.2,0-12.2-2.3-20.5-2-27.8,1.1-2.7,1.1-.6-1.6,2.7-3.4,5-2.8,11.8-2.9,21.4-.5,4.4,1.1,8.2,1.9,8.4,1.6.6-.6.2-.8-6-3.1-8-2.9-19.7-3.5-24.5-1.2M284.3,160.8c3.4,2.2,9.6,8,9.6,8.9s-1,0-2.1-.5c-3.6-1.9-6.7-2.1-9.8-.8-1.6.7-3,1.1-3.1,1-.4-.5-2.1-5.8-2.7-8.1-.6-2.5-.6-2.5,2.2-2.5s4,.8,5.9,2M465.6,160c-1.9.8-3,2.1-4.6,5.5-1.8,3.9-2.1,5.7-2.4,14.1-.2,7.7,0,10,.9,11.2,1.1,1.5,1.2,1.4,2.1-1.9,1.1-4.2,5.2-8.5,8-8.5s2.9.8,4.1,1.8c3.3,2.8,2.9,6.9-.9,10.4-2.2,2-2.7,2.9-2.1,3.8,1.5,2.4,3.1,2.8,5.2,1.4l2-1.3v-11.5c0-6.3-.4-13.3-.8-15.4-1.7-7.8-6.4-11.8-11.4-9.7M291.7,171.3c2.7.9,5.6,3,5,3.5-.2.2-1.5-.3-2.9-1-1.7-.9-4.4-1.4-8.2-1.4-3.1,0-5.6-.3-5.6-.6,0-1.4,7.9-1.8,11.7-.5M358.8,173.2c.8.7-4.6,6.2-7.7,8l-3.4,1.9,1.3-1.9c.8-1.1,1.3-3.3,1.3-5.6v-3.8l4.1.5c2.2.3,4.2.7,4.4.8M339.2,180.9c1.7,1.6,2.4,2.6,1.6,2.3-.8-.3-2.3-.5-3.3-.5-1.6,0-1.9-.4-1.9-2.3s.1-2.3.3-2.3,1.6,1.3,3.3,2.9M291.3,187.2c-.8.8-3.4-.7-4.2-2.5-1.7-3.8-.9-4.3,1.8-1.1,1.5,1.8,2.6,3.4,2.4,3.6M431.5,185.3c-.3.3-1.2.4-1.9.1-1.2-.5-1.2-.6,0-1.5,1-.7,1.5-.8,1.9-.1.3.5.3,1.2,0,1.5M369,184.4c-.5.5-.9,1.2-.9,1.5,0,.8,9.4,5.3,10.1,4.9,1.1-.7.8-2.2-.7-3.5-4.5-3.8-6.8-4.6-8.5-2.9M282.3,186.9c0,.2-.5.5-1.2.8-.7.3-1,.1-.7-.3.5-.7,1.9-1.1,1.9-.5M432.2,189.3c0,.6-.5,1.2-1.1,1.2-1.5,0-2.2-1.3-1-1.8,1.7-.7,2.1-.5,2.1.6M349.6,190.3c0,.3,1.1,1.1,2.5,1.7,1.4.6,4.4,3.7,6.9,7,6.5,8.6,11.5,11.4,18.1,10.5,4.6-.7,4.3-1.6-.5-1.8-4.9-.2-9.7-2.6-11.4-5.7-3.7-6.8-5.7-9.2-8.6-10.7-3.1-1.6-7-2.1-7-1M433,193.9c0,1.3-.7,1.4-2.7.7-1-.4-1.1-.6-.3-1.1,1.6-1,3-.8,3,.5M434.1,198.6c.7,1.7.7,1.7-1.5,1.3-2.1-.4-2.5-1.4-1-2,1.6-.7,1.9-.6,2.4.7M436.1,203.8c0,.8-2.9.7-3.4-.1-.2-.4.2-1.1.9-1.5,1.3-.7,2.5,0,2.5,1.6M437.6,207.8c1,1.3.8,1.4-1.1.7-.7-.3-1.2-.8-1.2-1.2,0-1.1,1.3-.8,2.3.5M440.5,212.9c1.1,1.8.4,2-1.6.5-1.6-1.2-1.7-2-.4-2s1.4.7,1.9,1.5M489.8,239.7c-.6.6-10.7-4.4-17-8.5-5.7-3.7-6-4-4.2-4.7,7.6-2.9,12.2-5.8,16.5-10.2l4.7-4.8.2,13.9c.1,7.7,0,14.1-.2,14.3M383.6,214.4c1.8.9,2,4,.3,5.4-1.7,1.4-5,.3-5.8-2-1.3-3.4,1.8-5.3,5.5-3.3M300.3,221.1c-.5,1.2,2.3,4.1,4,4.1.4,0,2.8,1.1,5.4,2.4,4.1,2.1,4.9,2.2,6.8,1.4,1.2-.5,1.9-1.1,1.6-1.4-.4-.3-1.1-1.4-1.6-2.6-1.3-2.9-6.4-5.1-11.6-5.2-3.1,0-4.2.3-4.6,1.2M300.7,260.4c-.6,1.9-1,2.4-1.5,1.7-.9-1.5-.8-3.5.3-4,1.8-.7,2-.5,1.1,2.2M387.6,267.7c3.3,2.3,5.9,4.5,6,4.8,0,1.1-15.4,8.4-23.9,11.3-8.7,3-23.1,6.7-23.6,6.1-.2-.2,4.7-3.8,10.7-8.1,6-4.3,14-10.3,17.6-13.2,3.6-3,6.8-5.3,7-5.2.2,0,3.1,2.1,6.4,4.4M402.4,287.5c.9,4.9,3.8,13.1,4.1,11.7.2-.7-.6-4.3-1.7-7.9-2.1-6.8-3.3-8.8-2.4-3.8M437.6,290.4c-6.6,2-6.1.5-4.1,12.9,1.3,8,6.3,29.9,7.2,31.6.5.8.7.7,1.1-.6.6-2,8.5-7.7,14.7-10.7,2.5-1.2,4.8-2.3,4.9-2.4.2-.1,0-.6-.5-1.2-1.6-2-8.1-15.7-11-23.4-3.4-9-3.4-9-12.3-6.3M420.2,296c-12.8,4.5-13.7,4.9-13.2,5.6.3.6,7.1,32.1,8,37.4.2,1.2.6,2.3.9,2.5.3.2,2.4-.4,4.7-1.3,3.3-1.3,6-1.6,12.5-1.7,7.1,0,8.2-.3,7.8-1.2-3.7-8.5-7.7-24.4-9.6-37.7-.5-3.5-1.1-6.5-1.4-6.6-.3-.1-4.7,1.2-9.8,3M391.3,298.1c0,8.6-.3,9.2-5.9,12-2.7,1.4-5.3,2.3-5.7,2.1-.4-.2-.9-1.5-1.2-2.8-.4-1.8,0-2.9,1.4-4.9,3.2-4.2,9.9-11.3,10.6-11.3s.7,2.2.7,4.9M486.6,319.8c-.8,2,5.1,9.9,13.1,17.8,8.1,7.9,19.5,17.2,20.3,16.4.2-.2-5.4-6.4-12.6-13.7-7.2-7.3-14.2-15.1-15.7-17.4-2.7-4.2-4.3-5.2-5.1-3.2M443.8,347c0,3.8,3.2,9,6.5,10.6,3.7,1.8,10.1,1.6,20.9-.6,9.4-1.9,11.5-2.8,10-4.3-.6-.6-2.2-.5-5.4.3-2.5.6-6.3,1.4-8.5,1.7-4.9.6-8.3-.8-16-6.5-2.9-2.2-5.8-4-6.4-4s-1.1,1-1.1,2.8M441.1,361.9c1.9,1.9,25.1,9.1,25.1,7.8s-23.5-8.5-25.1-8.5-.3.3,0,.7M500.6,362.1c-15,1.6-29.3,9.3-41.8,22.6-3.6,3.8-6.5,7.2-6.5,7.6s2,.7,4.4.7h4.4l6-5.7c7.1-6.8,13.4-10.6,22.8-13.9,6.7-2.3,7.5-2.4,19-2.4,13.7,0,17.9.9,31.1,7.1,4.1,1.9,7.8,3.3,8.1,3,.8-.8-5.2-6.6-10.6-10.1-10.9-7.1-23.7-10.2-36.7-8.8M427.6,365.3c1.6,1.6,27,12.2,28.6,11.9,1.7-.4-4.6-3.9-14.8-8.3-9.5-4.1-15.8-5.8-13.8-3.6M500.2,381.6c-4.9,1.4-8,3.1-11.2,6.3-4.6,4.6-4,4.9,6.9,3,7.9-1.4,15.9-1.1,21.2.8,3.7,1.3,10.9,1.7,10.9.5s-3.9-5.4-7.2-7.2c-6.9-4-13.9-5.2-20.7-3.3"/>
    </g>
    <g>
        <path d="M301.4,474.1v-55.1h8.7l15.8,36.3h.5l15.8-36.3h8.6v55.1h-5.3v-49.9h-.5l-16,36.4h-5.9l-16-36.4h-.5v49.9h-5.2Z"/>
        <path d="M362.8,452.7c0-5.6.7-10,2-13.2,1.3-3.3,3.4-5.6,6.2-6.9,2.8-1.4,6.4-2.1,10.8-2.1s8,.7,10.8,2.1c2.8,1.4,4.8,3.7,6.2,6.9,1.4,3.3,2.1,7.7,2.1,13.2s-.7,10-2.1,13.2c-1.4,3.3-3.4,5.6-6.2,6.9-2.8,1.4-6.4,2.1-10.8,2.1s-8-.7-10.8-2.1c-2.8-1.4-4.8-3.7-6.2-6.9-1.3-3.3-2-7.7-2-13.2ZM395.5,452.7c0-4.6-.4-8.1-1.3-10.7-.8-2.6-2.3-4.4-4.2-5.5s-4.7-1.7-8.2-1.7-6.3.6-8.3,1.7c-2,1.1-3.3,3-4.2,5.5-.8,2.6-1.2,6.1-1.2,10.7s.4,8.1,1.3,10.7c.8,2.6,2.2,4.4,4.2,5.5,2,1.1,4.7,1.7,8.2,1.7s6.4-.6,8.3-1.7c2-1.1,3.3-2.9,4.2-5.5.8-2.5,1.2-6.1,1.2-10.7Z"/>
        <path d="M418.3,469.3h24.7v4.8h-29.9v-55.1h5.2v50.2Z"/>
        <path d="M451.3,419.2c0-1.4.2-2.3.7-2.7.4-.4,1.3-.6,2.6-.6s2,.2,2.4.6c.4.4.7,1.3.7,2.7s-.2,2.3-.7,2.7c-.5.4-1.3.6-2.4.6s-2.1-.2-2.6-.6c-.5-.4-.7-1.3-.7-2.7ZM451.9,474.1v-42.9h5.1v42.9h-5.1Z"/>
        <path d="M505,444.3v29.8h-5.1v-27.5c0-2.8-.3-5-.8-6.7-.5-1.7-1.5-2.9-2.9-3.7-1.4-.8-3.4-1.2-6-1.2s-6.2.7-8.6,2-4,3.9-5,7.5v29.6h-5v-42.9h5v6.8c.9-2.6,2.7-4.6,5.3-5.8,2.6-1.2,5.6-1.8,8.8-1.8,5.2,0,8.8,1.2,11,3.5,2.1,2.4,3.2,5.8,3.2,10.3Z"/>
        <path d="M553.8,471.3c0,6-1.7,10.7-5,13.9-3.4,3.2-8.4,4.8-15.1,4.8s-7.3-.3-10-1v-4.4c2.8.6,6.1,1,10,1s9-1.2,11.5-3.7c2.5-2.4,3.7-6.3,3.7-11.5v-5c-1,2.9-2.6,5-4.9,6.5-2.3,1.5-5.6,2.2-9.8,2.2s-7.8-.8-10.3-2.5c-2.5-1.7-4.3-4.1-5.3-7.2-1-3.1-1.5-7.2-1.5-12.1s1.3-12.3,3.8-16.1c2.6-3.8,7-5.7,13.3-5.7s7.5.8,9.8,2.5c2.3,1.7,4,4,4.9,6.9v-8.7h5v40ZM549,452.3c0-5.7-1.1-10-3.2-13-2.1-3-5.8-4.5-11-4.5s-6.1.7-7.9,2.1c-1.8,1.4-3.1,3.4-3.7,5.9-.6,2.5-1,5.7-1,9.4s.3,7.1,1,9.6c.7,2.5,1.9,4.4,3.7,5.8,1.8,1.4,4.4,2.1,7.8,2.1,5.2,0,8.9-1.5,11-4.4,2.1-3,3.1-7.3,3.1-13Z"/>
    </g>
</svg>